<?xml version="1.0" standalone="no"?>
<!DOCTYPE svg PUBLIC "-//W3C//DTD SVG 20010904//EN"
 "http://www.w3.org/TR/2001/REC-SVG-20010904/DTD/svg10.dtd">
<svg version="1.0" xmlns="http://www.w3.org/2000/svg"
 width="1280.000000pt" height="1280.000000pt" viewBox="0 0 1280.000000 1280.000000"
 preserveAspectRatio="xMidYMid meet">

<g transform="translate(0.000000,1280.000000) scale(0.100000,-0.100000)"
fill="#000000" stroke="none">
<path d="M4784 7365 c-4 -9 -4 -63 -1 -118 9 -166 66 -302 186 -443 121 -144
277 -241 461 -288 54 -13 55 -28 3 -40 -21 -5 -40 -10 -42 -12 -8 -7 284 -327
321 -352 23 -14 70 -36 105 -47 35 -12 65 -25 66 -31 1 -5 -26 -10 -61 -12
l-62 -3 91 -181 c144 -283 204 -364 345 -464 35 -25 64 -49 64 -54 0 -11 -72
-68 -160 -128 -222 -148 -495 -247 -785 -283 -55 -6 -103 -15 -108 -19 -9 -8
119 -114 180 -148 70 -39 119 -34 231 22 50 25 96 46 102 46 6 0 -8 -21 -32
-46 -47 -50 -78 -93 -78 -110 0 -28 211 -95 321 -101 105 -6 134 5 209 82 69
73 85 75 50 8 -10 -21 -23 -58 -29 -82 l-9 -44 146 6 c245 9 287 36 251 158
-7 20 -9 45 -5 55 5 14 14 5 42 -42 20 -32 43 -65 52 -71 22 -18 76 -16 133 4
41 15 48 21 43 38 -14 42 -153 312 -168 324 -12 10 -38 12 -99 8 -142 -9 -308
-63 -435 -142 -39 -24 -73 -41 -76 -38 -11 11 35 62 97 108 148 112 318 166
597 190 118 10 187 32 294 91 147 82 231 108 333 101 58 -3 97 -12 139 -31 31
-14 59 -24 61 -22 6 6 -54 103 -95 155 -49 61 -139 124 -220 155 -53 21 -99
29 -202 36 -183 13 -214 30 -318 169 -30 41 -84 120 -120 175 -277 425 -510
639 -992 910 -96 54 -227 128 -290 164 -200 112 -371 230 -512 350 -16 13 -18
13 -24 -3z"/>
<path d="M7759 6923 c-291 -295 -676 -687 -862 -878 -69 -72 -129 -134 -132
-137 -11 -11 22 -75 61 -118 63 -70 118 -90 294 -109 52 -6 104 -13 115 -16
17 -5 27 7 63 79 24 46 68 121 98 166 l55 83 -53 -7 -53 -6 35 32 c20 18 94
83 164 143 71 61 156 134 189 164 l60 54 -35 -7 c-39 -7 -98 2 -98 15 0 5 12
14 28 20 63 23 100 48 163 110 74 73 124 155 166 274 25 72 28 93 28 210 0 99
-4 137 -15 158 l-16 28 -255 -258z"/>
</g>
</svg>
